<?xml version="1.0" encoding="UTF-8" standalone="no"?>
<!-- Created with Inkscape (http://www.inkscape.org/) -->

<svg
   width="240"
   height="160"
   viewBox="0 0 63.5 42.333334"
   version="1.1"
   id="svg4151"
   xml:space="preserve"
   sodipodi:docname="vector.svg"
   inkscape:version="1.2.1 (9c6d41e410, 2022-07-14)"
   inkscape:export-filename="../jam_assets/240x160_nobg.png"
   inkscape:export-xdpi="96"
   inkscape:export-ydpi="96"
   xmlns:inkscape="http://www.inkscape.org/namespaces/inkscape"
   xmlns:sodipodi="http://sodipodi.sourceforge.net/DTD/sodipodi-0.dtd"
   xmlns="http://www.w3.org/2000/svg"
   xmlns:svg="http://www.w3.org/2000/svg"><sodipodi:namedview
     id="namedview82"
     pagecolor="#587ec9"
     bordercolor="#000000"
     borderopacity="0.25"
     inkscape:showpageshadow="2"
     inkscape:pageopacity="0"
     inkscape:pagecheckerboard="0"
     inkscape:deskcolor="#d1d1d1"
     inkscape:document-units="px"
     showgrid="false"
     inkscape:zoom="5.6535615"
     inkscape:cx="110.3729"
     inkscape:cy="81.62996"
     inkscape:window-width="1920"
     inkscape:window-height="1115"
     inkscape:window-x="0"
     inkscape:window-y="48"
     inkscape:window-maximized="1"
     inkscape:current-layer="text4066-3" /><defs
     id="defs4148" /><g
     id="layer1"
     transform="matrix(1,0,0,1.0238095,-24.041,-26.890051)"><path
       id="path179-2-1-3"
       style="font-size:28.2222px;letter-spacing:0px;word-spacing:0px;fill:#ffffff;fill-opacity:1;stroke:#ffffff;stroke-width:1.09385;stroke-linecap:square;stroke-linejoin:miter;stroke-miterlimit:4;stroke-dasharray:none;stroke-opacity:1;paint-order:fill markers stroke"
       d="m 65.32701,38.339878 c -1.135584,3.5e-5 -21.517874,0.03116 -22.762475,0.03116 -1.244615,0 -2.459706,0.9054 -2.459686,2.428326 0,1.522915 0.02908,1.403046 0.02692,3.341784 -0.0026,1.938734 3.08e-4,1.278044 -0.0061,2.696848 -0.0064,1.418795 1.347132,2.473867 2.400661,2.473867 v -9.13e-4 c 0.91896,0 21.171407,-0.0022 26.9279,-0.0028 1.962979,-2.09e-4 2.379455,1.915248 2.379455,1.915248 1.536818,-2.437555 0.0707,-4.113101 -1.246533,-6.288883 -1.36128,-2.345087 -2.82413,-4.851343 -3.13264,-5.333573 -0.606046,-0.947297 -0.99196,-1.261512 -2.127528,-1.261469 z m -25.701665,9.089581 c -0.441733,1.756106 -0.267256,3.841526 0.217989,5.056734 0.48525,1.215206 1.354171,3.79547 3.276873,3.79547 1.922691,0 24.958153,0.0391 26.368168,0.0391 1.41001,0 1.879295,-0.506533 1.879295,-1.937942 0,-1.431407 0.0092,-1.93187 0.0092,-2.718428 0,-0.906057 -1.06221,-1.950658 -1.892941,-1.950658 v 1.8e-4 c -0.716316,0 -20.8387,0.0025 -27.034869,0.0025 -1.267429,-0.02549 -2.093802,-2.213074 -2.621398,-3.538589 z"
       sodipodi:nodetypes="csccccccccscccsssssccccc" /><path
       style="font-size:28.2222px;letter-spacing:0px;word-spacing:0px;fill:#c84097;fill-opacity:1;stroke-width:0.0944258"
       d="m 71.395309,51.625973 c 0,0.786558 -0.0093,1.287008 -0.0093,2.718418 0,1.43141 -0.469174,1.937897 -1.879194,1.937897 -1.410009,0 -24.445582,-0.0392 -26.36828,-0.0392 -1.922701,0 -2.791486,-2.580215 -3.276731,-3.795427 -0.485246,-1.21521 -0.659903,-3.300592 -0.218159,-5.056705 0.334591,1.248716 1.140761,2.335559 2.820221,2.369343 6.196173,0 26.031035,-0.0025 27.034748,-0.0025 1.003708,0 1.896639,0.898648 1.896639,1.868182 z"
       id="path179-2-1"
       sodipodi:nodetypes="czzzzcczc" /><path
       style="font-size:28.2222px;letter-spacing:0px;word-spacing:0px;fill:#00a9b3;fill-opacity:1;stroke-width:0.0944258"
       d="m 71.3956,51.62714 c 0,0.786555 -0.0093,1.287006 -0.0093,2.718415 0,1.43141 -0.469174,1.937897 -1.87919,1.937897 -0.723325,0 -13.473405,-0.02038 -13.473405,-0.02038 l -0.495071,-6.502611 c 0,0 13.390908,-0.0015 13.960285,-0.0015 1.003714,0 1.896644,0.898647 1.896644,1.868179 z"
       id="path179-2-1-36"
       sodipodi:nodetypes="czsccscc" /><g
       aria-label="JAM  2022"
       transform="scale(1.0583574,0.94486041)"
       id="text4066-3"
       style="font-style:italic;font-weight:600;font-size:4.97315px;line-height:1.25;font-family:Montserrat;-inkscape-font-specification:'Montserrat Semi-Bold Italic';letter-spacing:0px;word-spacing:0px;fill:#ffffff;stroke-width:0.0218035"><path
         d="m 41.242449,57.91626 q -0.353094,0 -0.651483,-0.129301 -0.293416,-0.134275 -0.482396,-0.37796 l 0.447584,-0.5371 q 0.144221,0.18898 0.303362,0.288443 0.159141,0.09449 0.343147,0.09449 0.492342,0 0.492342,-0.576886 V 55.021887 H 40.47161 v -0.646509 h 2.024072 v 2.25781 q 0,0.646509 -0.318281,0.964791 -0.318282,0.318281 -0.934952,0.318281 z"
         style="font-style:normal;font-weight:bold;-inkscape-font-specification:'Montserrat Bold'"
         id="path352" /><path
         d="m 42.759264,57.856583 1.551623,-3.481205 h 0.795704 l 1.556596,3.481205 h -0.845436 l -1.273126,-3.073407 h 0.318282 l -1.2781,3.073407 z m 0.775812,-0.745973 0.213845,-0.611697 h 1.790334 l 0.218819,0.611697 z"
         style="font-style:normal;font-weight:bold;-inkscape-font-specification:'Montserrat Bold'"
         id="path354" /><path
         d="m 47.026231,57.856583 v -3.481205 h 0.666402 l 1.481998,2.456736 h -0.353093 l 1.457132,-2.456736 h 0.661429 l 0.0099,3.481205 h -0.755919 l -0.005,-2.322461 h 0.139248 l -1.163717,1.954448 h -0.36304 l -1.188583,-1.954448 h 0.169087 v 2.322461 z"
         style="font-style:normal;font-weight:bold;-inkscape-font-specification:'Montserrat Bold'"
         id="path356" /><path
         d="m 54.341743,57.856583 v -0.522181 l 1.342751,-1.268153 q 0.159141,-0.144222 0.233738,-0.258604 0.0746,-0.114383 0.09946,-0.208872 0.02984,-0.09449 0.02984,-0.174061 0,-0.208872 -0.144222,-0.318281 -0.139248,-0.114383 -0.412771,-0.114383 -0.218819,0 -0.407798,0.08454 -0.184007,0.08454 -0.313309,0.263577 l -0.586831,-0.37796 q 0.198926,-0.298389 0.556992,-0.472449 0.358067,-0.17406 0.825543,-0.17406 0.387906,0 0.676349,0.129302 0.293415,0.124329 0.452556,0.353094 0.164114,0.228764 0.164114,0.547046 0,0.169087 -0.04476,0.338174 -0.03978,0.164114 -0.169087,0.348121 -0.124329,0.184006 -0.368013,0.412771 l -1.113986,1.049335 -0.154168,-0.293416 h 1.964395 v 0.656456 z"
         style="font-style:normal;font-weight:bold;-inkscape-font-specification:'Montserrat Bold'"
         id="path358" /><path
         d="m 58.797686,57.91626 q -0.427691,0 -0.765865,-0.208872 -0.338175,-0.213845 -0.532128,-0.61667 -0.193952,-0.402826 -0.193952,-0.974738 0,-0.571912 0.193952,-0.974737 0.193953,-0.402825 0.532128,-0.611698 0.338174,-0.213845 0.765865,-0.213845 0.432664,0 0.765865,0.213845 0.338174,0.208873 0.532127,0.611698 0.193953,0.402825 0.193953,0.974737 0,0.571912 -0.193953,0.974738 -0.193953,0.402825 -0.532127,0.61667 -0.333201,0.208872 -0.765865,0.208872 z m 0,-0.681321 q 0.203899,0 0.353093,-0.114383 0.154168,-0.114382 0.238711,-0.363039 0.08952,-0.248658 0.08952,-0.641537 0,-0.392879 -0.08952,-0.641536 -0.08454,-0.248658 -0.238711,-0.36304 -0.149194,-0.114382 -0.353093,-0.114382 -0.198926,0 -0.353094,0.114382 -0.149195,0.114382 -0.238711,0.36304 -0.08454,0.248657 -0.08454,0.641536 0,0.392879 0.08454,0.641537 0.08952,0.248657 0.238711,0.363039 0.154168,0.114383 0.353094,0.114383 z"
         style="font-style:normal;font-weight:bold;-inkscape-font-specification:'Montserrat Bold'"
         id="path360" /><path
         d="m 60.632955,57.856583 v -0.522181 l 1.342751,-1.268153 q 0.159141,-0.144222 0.233738,-0.258604 0.0746,-0.114383 0.09946,-0.208872 0.02984,-0.09449 0.02984,-0.174061 0,-0.208872 -0.144221,-0.318281 -0.139249,-0.114383 -0.412772,-0.114383 -0.218818,0 -0.407798,0.08454 -0.184007,0.08454 -0.313309,0.263577 l -0.586831,-0.37796 q 0.198926,-0.298389 0.556992,-0.472449 0.358067,-0.17406 0.825543,-0.17406 0.387906,0 0.676349,0.129302 0.293416,0.124329 0.452556,0.353094 0.164114,0.228764 0.164114,0.547046 0,0.169087 -0.04476,0.338174 -0.03979,0.164114 -0.169087,0.348121 -0.124329,0.184006 -0.368013,0.412771 l -1.113986,1.049335 -0.154167,-0.293416 h 1.964394 v 0.656456 z"
         style="font-style:normal;font-weight:bold;-inkscape-font-specification:'Montserrat Bold'"
         id="path362" /><path
         d="m 63.567114,57.856583 v -0.522181 l 1.34275,-1.268153 q 0.159141,-0.144222 0.233738,-0.258604 0.0746,-0.114383 0.09946,-0.208872 0.02984,-0.09449 0.02984,-0.174061 0,-0.208872 -0.144221,-0.318281 -0.139248,-0.114383 -0.412772,-0.114383 -0.218818,0 -0.407798,0.08454 -0.184006,0.08454 -0.313308,0.263577 l -0.586832,-0.37796 q 0.198926,-0.298389 0.556993,-0.472449 0.358067,-0.17406 0.825543,-0.17406 0.387905,0 0.676348,0.129302 0.293416,0.124329 0.452557,0.353094 0.164114,0.228764 0.164114,0.547046 0,0.169087 -0.04476,0.338174 -0.03979,0.164114 -0.169087,0.348121 -0.124329,0.184006 -0.368013,0.412771 l -1.113985,1.049335 -0.154168,-0.293416 h 1.964394 v 0.656456 z"
         style="font-style:normal;font-weight:bold;-inkscape-font-specification:'Montserrat Bold'"
         id="path364" /></g><path
       style="fill:#553b91;fill-opacity:1;stroke-width:0.119749"
       d="m 42.544802,49.273381 c -1.05353,0 -2.407066,-1.054992 -2.400657,-2.47379 0.0065,-1.418804 0.0035,-0.758168 0.0061,-2.696908 0.002,-1.938741 -0.02701,-1.818862 -0.02701,-3.341782 -2e-5,-1.522925 1.21505,-2.428434 2.459661,-2.428434 1.24461,0 21.626946,-0.03105 22.762534,-0.0311 1.135564,-4.1e-5 1.521527,0.31414 2.127563,1.261438 0.308516,0.482228 1.771291,2.988593 3.132576,5.333684 1.317224,2.175784 2.783386,3.851219 1.246567,6.288778 0,0 -0.41656,-1.915452 -2.37954,-1.915246 -5.756502,9.12e-4 -26.008856,0.0028 -26.927814,0.0028 z m 7.465584,-2.658378 c 0,-0.565832 0.0082,-2.234317 0.0082,-3.587905 -1.643002,-0.0052 -3.259906,-0.0086 -4.902823,0.0018 l -0.01595,1.525492 2.908061,-0.0078 c 0,0 0.002,0.435396 0.002,0.725974 5e-6,0.29057 -0.148534,0.567287 -0.416511,0.567289 -0.267981,1.1e-5 -2.81761,-0.0014 -3.171679,-0.0014 -0.35407,4e-6 -0.552945,-0.361237 -0.552954,-0.726984 -6e-6,-0.365739 -0.01404,-2.427175 -0.01222,-2.846539 0.002,-0.419365 0.172923,-0.631437 0.59149,-0.631437 0.418569,-4e-6 5.561398,-0.0078 5.561398,-0.0078 l 0.0053,-1.759648 c 0,0 -6.013904,0.03499 -6.998271,0.03499 -0.984352,0 -1.32694,0.53841 -1.326925,1.381081 1e-5,0.842677 -0.0026,4.982777 -0.0026,5.474002 1.5e-5,0.491233 0.48275,1.096933 1.01913,1.096933 0.536381,0 5.369075,0.0078 6.105794,0.0078 0.736738,0 1.198416,-0.680225 1.198416,-1.246071 z m 8.97018,0.08332 c 0,-0.612106 0.0051,-2.003808 0.0051,-2.274627 0,-0.270814 -0.07634,-0.50746 -0.231256,-0.636016 -0.06161,-0.05112 -0.260288,-0.154606 -0.260288,-0.154606 0,0 0.16793,-0.09673 0.260282,-0.198783 0.153325,-0.169424 0.228852,-0.179024 0.228852,-0.538858 0,-0.359831 0.002,-1.449949 0.002,-2.06593 0,-0.615979 -0.358869,-0.973358 -1.307208,-0.973312 -0.948346,4.1e-5 -7.017973,0.0041 -7.017973,0.0041 l -0.0073,7.981576 c 0,0 6.356354,0.0078 7.032891,0.0078 0.676528,0 1.306518,-0.601886 1.294774,-1.151349 z m -2.625951,-3.672394 c -0.48766,0 -2.80493,-0.0022 -2.805307,-0.0027 -2.47e-4,-4.85e-4 0.0035,1.528934 0.0035,1.528934 0,0 2.049022,-0.0089 2.693786,-0.0094 0.644762,-3.39e-4 0.613497,1.287278 -0.04262,1.288302 l -3.454111,0.0054 c 0.0046,-1.45944 -0.002,-4.204497 -0.002,-4.204497 0,0 3.104906,0.0027 3.599803,0.0027 0.4949,0 0.494326,1.391461 0.0066,1.391461 z m 10.648836,4.819369 -1.064514,-2.094451 -3.310663,-0.0028 2.006436,-3.462805 c 1.033494,1.791615 2.070752,3.772208 3.104242,5.56383 l 2.579415,0.0083 c 0,0 -3.091272,-5.393176 -4.590822,-8.003567 H 63.548399 L 58.986675,47.85073 Z M 49.76654,50.84513"
       id="path179-2"
       sodipodi:nodetypes="ccccsssccccccccccccssscccsccsscccsscssssccsccccccsccscccccccccccc" /><text
       xml:space="preserve"
       style="font-style:normal;font-variant:normal;font-weight:bold;font-stretch:normal;font-size:14.8167px;font-family:'Lobster Two';-inkscape-font-specification:'Lobster Two Bold';fill:#000000;stroke-width:0.264583"
       x="110.41173"
       y="125.37986"
       id="text378"><tspan
         sodipodi:role="line"
         id="tspan376"
         style="stroke-width:0.264583"
         x="110.41173"
         y="125.37986" /></text><text
       xml:space="preserve"
       style="font-style:italic;font-variant:normal;font-weight:900;font-stretch:normal;font-size:22.5778px;font-family:'Noto Sans';-inkscape-font-specification:'Noto Sans Heavy Italic';fill:#d32c2c;fill-opacity:0.603684;stroke-width:0.264583"
       x="162.19598"
       y="143.95804"
       id="text2216"><tspan
         sodipodi:role="line"
         id="tspan2214"
         style="stroke-width:0.264583"
         x="162.19598"
         y="143.95804" /></text><text
       xml:space="preserve"
       style="font-style:italic;font-variant:normal;font-weight:900;font-stretch:normal;font-size:22.5778px;font-family:'Noto Sans';-inkscape-font-specification:'Noto Sans Heavy Italic';fill:#d32ccd;fill-opacity:0.603684;stroke-width:0.264583"
       x="228.44243"
       y="134.16354"
       id="text2322"><tspan
         sodipodi:role="line"
         id="tspan2320"
         style="stroke-width:0.264583"
         x="228.44243"
         y="134.16354" /></text><rect
       style="fill:#c84097;fill-opacity:1;stroke:#ffffff;stroke-width:0.536209;stroke-linecap:square;stroke-opacity:1;paint-order:fill markers stroke"
       id="rect2586"
       width="0.040093873"
       height="6.4465361"
       x="55.777412"
       y="49.794395" /></g></svg>
